<svg width="37" height="33" viewBox="0 0 37 33" fill="none" xmlns="http://www.w3.org/2000/svg">
<path d="M6.95117 18.9854C7.95153 18.9854 8.76367 19.7975 8.76367 20.7979V23.624H11.5898C12.5902 23.624 13.4023 24.4362 13.4023 25.4365C13.4023 26.4368 12.5901 27.249 11.5898 27.249H8.76367V30.0752C8.76367 31.0756 7.95153 31.8877 6.95117 31.8877C5.9509 31.8876 5.13867 31.0755 5.13867 30.0752V27.249H2.3125C1.3122 27.249 0.500092 26.4368 0.5 25.4365C0.5 24.4362 1.31214 23.624 2.3125 23.624H5.13867V20.7979C5.13867 19.7976 5.9509 18.9855 6.95117 18.9854ZM25.4102 28.2354H34.6875C35.6879 28.2354 36.5 29.0475 36.5 30.0479C36.4998 31.048 35.6877 31.8604 34.6875 31.8604H25.4102C24.4099 31.8604 23.5979 31.048 23.5977 30.0479C23.5977 29.0475 24.4098 28.2354 25.4102 28.2354ZM25.4102 18.9854H34.6875C35.6879 18.9854 36.5 19.7975 36.5 20.7979C36.4998 21.798 35.6877 22.6104 34.6875 22.6104H25.4102C24.4099 22.6104 23.5979 21.798 23.5977 20.7979C23.5977 19.7975 24.4098 18.9854 25.4102 18.9854ZM33.4062 1.03027C34.1129 0.32366 35.2621 0.32366 35.9688 1.03027C36.6753 1.73689 36.6753 2.88619 35.9688 3.59277L32.6113 6.9502L35.9688 10.3076C36.6753 11.0142 36.6752 12.1635 35.9688 12.8701C35.2621 13.5767 34.1129 13.5767 33.4062 12.8701L30.0488 9.5127L26.6914 12.8701C25.9848 13.5767 24.8345 13.5767 24.1279 12.8701C23.4218 12.1635 23.4216 11.0141 24.1279 10.3076L27.1318 7.30371L27.4863 6.9502L27.1318 6.59668L24.1279 3.59277C23.4216 2.88627 23.4218 1.73685 24.1279 1.03027C24.8345 0.323661 25.9848 0.323661 26.6914 1.03027L30.0488 4.3877L33.4062 1.03027ZM2.3125 5.12402H11.5898C12.5902 5.12402 13.4023 5.93617 13.4023 6.93652C13.4022 7.9368 12.5901 8.74902 11.5898 8.74902H2.3125C1.3122 8.74902 0.500096 7.9368 0.5 6.93652C0.5 5.93617 1.31214 5.12402 2.3125 5.12402Z" fill="white" stroke="#FFB000"/>
</svg>
