<svg width="22" height="19" viewBox="0 0 22 19" fill="none" xmlns="http://www.w3.org/2000/svg">
<path fill-rule="evenodd" clip-rule="evenodd" d="M1.92612 8.28678C7.51296 5.86796 11.2384 4.27332 13.1024 3.50287C18.4246 1.30308 19.5305 0.920956 20.2513 0.908338C20.4099 0.905562 20.7643 0.944606 20.994 1.12975C21.1878 1.28609 21.2412 1.49727 21.2667 1.64549C21.2922 1.79372 21.324 2.13137 21.2988 2.3952C21.0103 5.40655 19.7624 12.7143 19.1275 16.087C18.8589 17.5142 18.3299 17.9927 17.8178 18.0395C16.7049 18.1413 15.8598 17.3086 14.7819 16.6065C13.0951 15.5078 12.1422 14.8238 10.505 13.7516C8.61285 12.5126 9.83944 11.8316 10.9178 10.7186C11.2 10.4273 16.1035 5.99516 16.1984 5.5931C16.2103 5.54281 16.2213 5.35537 16.1092 5.2564C15.9972 5.15742 15.8318 5.19127 15.7125 5.21819C15.5433 5.25634 12.8487 7.02617 7.62875 10.5277C6.86391 11.0496 6.17114 11.3039 5.55044 11.2905C4.86617 11.2759 3.5499 10.9061 2.5714 10.59C1.37122 10.2023 0.417342 9.99735 0.500403 9.33894C0.543667 8.99601 1.01891 8.64528 1.92612 8.28678Z" fill="url(#paint0_radial_120_1257)"/>
<defs>
<radialGradient id="paint0_radial_120_1257" cx="0" cy="0" r="1" gradientUnits="userSpaceOnUse" gradientTransform="translate(10.9017 0.908205) rotate(90) scale(23.4244 22.0686)">
<stop stop-color="#FFC400"/>
<stop offset="1" stop-color="#FF9900"/>
</radialGradient>
</defs>
</svg>
