<svg width="23" height="23" viewBox="0 0 23 23" fill="none" xmlns="http://www.w3.org/2000/svg">
<path d="M0.842773 22.1413L2.33674 16.8477C1.03185 14.6283 0.578207 12.0112 1.06018 9.48278C1.54215 6.9544 2.92694 4.68691 4.95702 3.10197C6.98709 1.51703 9.5243 0.722523 12.0968 0.866173C14.6693 1.00982 17.1021 2.08186 18.9427 3.88294C20.7833 5.68402 21.9065 8.09155 22.1033 10.6578C22.3002 13.2241 21.5574 15.7745 20.0131 17.8347C18.4687 19.8949 16.2279 21.3247 13.7073 21.8583C11.1867 22.3919 8.55795 21.9928 6.30981 20.7354L0.842773 22.1413ZM6.58588 18.8051L6.91065 19.0051C8.76275 20.1315 10.965 20.5376 13.0977 20.146C15.2303 19.7544 17.144 18.5925 18.4741 16.8818C19.8041 15.1712 20.4575 13.0313 20.3095 10.8703C20.1615 8.70935 19.2225 6.67834 17.6717 5.16452C16.1208 3.6507 14.0665 2.75997 11.9003 2.66213C9.73422 2.5643 7.6078 3.26622 5.92651 4.63406C4.24521 6.0019 3.12664 7.93999 2.78404 10.0788C2.44144 12.2177 2.89879 14.4076 4.06888 16.2312L4.29081 16.5719L3.43016 19.6215L6.58588 18.8051Z" fill="url(#paint0_radial_120_1250)"/>
<path d="M8.5229 6.51894L7.83545 6.48109C7.61845 6.46766 7.4048 6.53946 7.24004 6.68116C6.7407 7.09064 6.37971 7.64381 6.20617 8.26546C5.96259 9.34689 6.34149 10.6933 7.32123 12.0505C8.77196 14.1585 10.9021 15.7063 13.3566 16.4357C13.7687 16.5711 14.2057 16.6136 14.6362 16.5603C15.0667 16.507 15.48 16.3592 15.8466 16.1275C16.0932 15.9677 16.3058 15.7607 16.4721 15.5185C16.6384 15.2763 16.7551 15.0036 16.8155 14.7162L16.9237 14.1755C16.941 14.096 16.9306 14.013 16.8941 13.9402C16.8577 13.8674 16.7975 13.8093 16.7235 13.7754L14.3905 12.6939C14.3167 12.6602 14.2337 12.6525 14.155 12.6721C14.0763 12.6918 14.0066 12.7376 13.9575 12.8021L13.0427 13.9863C13.0093 14.0296 12.9631 14.0613 12.9106 14.0768C12.8581 14.0924 12.802 14.0909 12.7504 14.0728C11.0935 13.4809 9.71215 12.3012 8.86932 10.7582C8.84411 10.7111 8.83372 10.6575 8.83952 10.6045C8.84531 10.5514 8.86702 10.5013 8.90179 10.4608L9.77868 9.44963C9.82256 9.39924 9.85141 9.33755 9.86194 9.2716C9.87246 9.20564 9.86425 9.13806 9.83823 9.07653L8.83142 6.76226C8.80529 6.70106 8.76256 6.64838 8.70804 6.61016C8.65352 6.57194 8.5894 6.54972 8.5229 6.54598V6.51894Z" fill="url(#paint1_radial_120_1250)"/>
<defs>
<radialGradient id="paint0_radial_120_1250" cx="0" cy="0" r="1" gradientUnits="userSpaceOnUse" gradientTransform="translate(11.4886 0.849611) rotate(90) scale(29.0986 22.5765)">
<stop stop-color="#FFC400"/>
<stop offset="1" stop-color="#FF9900"/>
</radialGradient>
<radialGradient id="paint1_radial_120_1250" cx="0" cy="0" r="1" gradientUnits="userSpaceOnUse" gradientTransform="translate(11.5332 6.47949) rotate(90) scale(13.8076 11.4489)">
<stop stop-color="#FFC400"/>
<stop offset="1" stop-color="#FF9900"/>
</radialGradient>
</defs>
</svg>
